<svg width="375" height="342" viewBox="0 0 375 342" fill="none" xmlns="http://www.w3.org/2000/svg">
<path d="M131.662 114.512H150.734V122H122.574V79.76H131.662V114.512ZM170.484 115.728C174.772 115.728 177.012 113.68 178.292 112.272L182.452 117.072C180.404 119.76 175.988 122.384 169.46 122.384C159.284 122.384 153.204 115.984 153.204 106.896C153.204 97.872 159.284 91.408 168.628 91.408C177.46 91.408 182.516 97.424 182.516 105.68C182.516 107.6 182.26 108.88 182.26 108.88H161.908C162.676 112.912 165.492 115.728 170.484 115.728ZM168.628 98.064C165.172 98.064 162.548 100.304 161.908 104.336H174.516C174.452 100.752 172.276 98.064 168.628 98.064ZM208.603 113.36L211.099 120.208C211.099 120.208 207.899 122.384 202.075 122.384C194.139 122.384 189.979 118.096 189.979 109.52V98.448H185.371V91.792H190.363V83.28L198.811 82.96V91.792H209.435V98.448H198.811V109.136C198.811 113.168 200.347 114.96 203.739 114.96C206.811 114.96 208.603 113.36 208.603 113.36ZM213.968 84.112C213.968 81.296 215.952 79.248 219.088 79.248C222.096 79.248 224.912 81.296 224.912 85.712C224.912 95.632 217.104 99.344 217.104 99.344L214.096 95.568C214.096 95.568 219.152 92.688 219.152 88.912C216.208 88.912 213.968 86.928 213.968 84.112ZM246.191 102.352C246.255 102.096 246.319 101.712 246.319 101.264C246.319 98.832 244.527 97.296 241.455 97.296C238.575 97.296 236.975 98.64 236.975 100.432C236.975 106.512 254.639 101.712 254.703 113.36C254.767 118.8 249.775 122.384 241.519 122.384C232.367 122.384 228.207 118.544 227.439 117.904L231.535 112.592C232.175 113.168 236.655 116.24 241.199 116.24C244.271 116.24 245.743 115.344 245.743 113.872C245.743 109.008 228.847 111.952 228.847 100.944C228.847 95.056 233.967 91.408 241.775 91.408C249.071 91.408 254.191 94.928 254.191 99.856C254.191 101.072 253.935 101.904 253.935 101.904L246.191 102.352ZM88.461 149.312C101.133 149.312 105.677 158.272 105.677 165.056L97.293 166.336C97.293 162.432 94.925 157.184 88.589 157.184C82.509 157.184 77.709 162.304 77.709 170.88C77.709 180.608 83.533 184.576 89.805 184.576C95.245 184.576 98.893 180.992 100.621 178.56L105.997 184.192C104.141 186.88 98.957 192.448 89.549 192.448C77.005 192.448 68.557 184.256 68.557 170.88C68.557 157.696 76.877 149.312 88.461 149.312ZM165.068 161.408C172.556 161.408 176.332 166.592 176.332 173.44V192H167.564V174.976C167.564 171.392 165.772 168.96 162.252 168.96C157.772 168.96 155.852 172.864 155.852 176.384V192H147.084V161.792L153.932 161.536C154.572 163.52 155.02 166.592 155.02 167.872H155.276C156.748 164.288 159.692 161.408 165.068 161.408ZM201.256 161.408C208.744 161.408 212.52 166.592 212.52 173.44V192H203.752V174.976C203.752 171.392 201.96 168.96 198.44 168.96C193.96 168.96 192.04 172.864 192.04 176.384V192H183.272V161.792L190.12 161.536C190.76 163.52 191.208 166.592 191.208 167.872H191.464C192.936 164.288 195.88 161.408 201.256 161.408ZM235.203 185.728C239.491 185.728 241.731 183.68 243.011 182.272L247.171 187.072C245.123 189.76 240.707 192.384 234.179 192.384C224.003 192.384 217.923 185.984 217.923 176.896C217.923 167.872 224.003 161.408 233.347 161.408C242.179 161.408 247.235 167.424 247.235 175.68C247.235 177.6 246.979 178.88 246.979 178.88H226.627C227.395 182.912 230.211 185.728 235.203 185.728ZM233.347 168.064C229.891 168.064 227.267 170.304 226.627 174.336H239.235C239.171 170.752 236.995 168.064 233.347 168.064ZM267.102 161.408C275.102 161.408 279.774 166.144 279.774 172.032C279.774 173.376 279.582 174.272 279.582 174.272L271.838 174.72C271.902 174.592 271.966 174.016 271.966 173.376C271.966 170.816 270.302 168.576 266.974 168.576C263.006 168.576 260.318 171.84 260.318 176.704C260.318 181.824 262.942 185.216 268.126 185.216C272.862 185.216 275.486 182.784 276.382 181.696L280.67 187.2C278.75 189.632 274.334 192.384 267.55 192.384C257.438 192.384 251.422 185.984 251.422 177.024C251.422 167.744 257.822 161.408 267.102 161.408ZM306.134 183.36L308.63 190.208C308.63 190.208 305.43 192.384 299.606 192.384C291.67 192.384 287.51 188.096 287.51 179.52V168.448H282.902V161.792H287.894V153.28L296.342 152.96V161.792H306.966V168.448H296.342V179.136C296.342 183.168 297.878 184.96 301.27 184.96C304.342 184.96 306.134 183.36 306.134 183.36ZM87.744 231.792H96.64L87.936 262H77.888L73.536 246.64C73.344 245.68 73.024 243.952 72.96 243.248H72.768C72.704 243.952 72.448 245.68 72.192 246.64L67.712 262H57.728L48.768 231.792H57.92L62.272 249.712C62.656 251.376 62.848 252.464 63.04 253.68H63.232C63.424 252.464 63.68 251.248 64.128 249.712L68.992 231.792H76.8L81.6 249.584C81.984 251.12 82.368 252.848 82.496 253.68H82.688C82.816 252.848 83.072 251.248 83.52 249.584L87.744 231.792ZM111.259 222.128C111.259 225.328 108.699 227.568 105.562 227.568C102.427 227.568 99.9305 225.328 99.9305 222.128C99.9305 218.992 102.427 216.688 105.562 216.688C108.699 216.688 111.259 218.992 111.259 222.128ZM101.147 262V231.792L109.915 231.536V262H101.147ZM137.947 253.36L140.443 260.208C140.443 260.208 137.243 262.384 131.419 262.384C123.483 262.384 119.323 258.096 119.323 249.52V238.448H114.715V231.792H119.707V223.28L128.155 222.96V231.792H138.779V238.448H128.155V249.136C128.155 253.168 129.691 254.96 133.083 254.96C136.155 254.96 137.947 253.36 137.947 253.36ZM162.256 231.408C169.808 231.408 173.583 236.592 173.583 243.44V262H164.752V244.976C164.752 241.392 163.024 238.96 159.44 238.96C154.96 238.96 153.04 242.8 153.04 246.384V262H144.272V216.816H152.848L152.912 236.72H153.104C154.64 233.648 157.392 231.408 162.256 231.408ZM209.203 255.728C213.491 255.728 215.731 253.68 217.011 252.272L221.171 257.072C219.123 259.76 214.707 262.384 208.179 262.384C198.003 262.384 191.923 255.984 191.923 246.896C191.923 237.872 198.003 231.408 207.347 231.408C216.179 231.408 221.235 237.424 221.235 245.68C221.235 247.6 220.979 248.88 220.979 248.88H200.627C201.395 252.912 204.211 255.728 209.203 255.728ZM207.347 238.064C203.891 238.064 201.267 240.304 200.627 244.336H213.235C213.171 240.752 210.995 238.064 207.347 238.064ZM256.333 255.152L256.718 261.808C256.718 261.808 254.862 262.384 252.43 262.384C248.27 262.384 246.03 260.784 245.454 257.584C244.494 259.44 241.998 262.384 235.726 262.384C229.198 262.384 225.486 259.12 225.486 254.064C225.486 246.576 233.358 244.72 244.622 244.464H245.006V243.12C245.006 240.048 243.214 238 239.502 238C236.174 238 234.318 239.344 234.318 241.52C234.318 241.968 234.382 242.352 234.574 242.672L226.894 243.952C226.894 243.952 226.51 242.672 226.51 241.008C226.51 235.248 231.566 231.408 239.885 231.408C248.782 231.408 253.582 235.888 253.582 243.504V253.36C253.582 254.768 254.094 255.344 255.246 255.344C255.63 255.344 256.014 255.28 256.333 255.152ZM238.222 255.92C242.446 255.92 245.006 253.744 245.006 251.312V248.88H244.622C237.39 249.072 233.998 250.096 233.998 252.912C233.998 254.896 235.598 255.92 238.222 255.92ZM275.852 231.408C283.852 231.408 288.524 236.144 288.524 242.032C288.524 243.376 288.332 244.272 288.332 244.272L280.588 244.72C280.652 244.592 280.716 244.016 280.716 243.376C280.716 240.816 279.052 238.576 275.724 238.576C271.756 238.576 269.068 241.84 269.068 246.704C269.068 251.824 271.692 255.216 276.876 255.216C281.612 255.216 284.236 252.784 285.132 251.696L289.42 257.2C287.5 259.632 283.084 262.384 276.3 262.384C266.188 262.384 260.172 255.984 260.172 247.024C260.172 237.744 266.572 231.408 275.852 231.408ZM312.381 231.408C319.933 231.408 323.708 236.592 323.708 243.44V262H314.877V244.976C314.877 241.392 313.149 238.96 309.565 238.96C305.085 238.96 303.165 242.8 303.165 246.384V262H294.397V216.816H302.973L303.037 236.72H303.229C304.765 233.648 307.517 231.408 312.381 231.408ZM118.889 301.408C128.425 301.408 134.761 307.808 134.761 316.896C134.761 325.984 128.425 332.384 118.889 332.384C109.289 332.384 102.953 325.984 102.953 316.896C102.953 307.808 109.289 301.408 118.889 301.408ZM118.889 325.216C123.177 325.216 125.865 321.824 125.865 316.896C125.865 312.032 123.177 308.576 118.889 308.576C114.537 308.576 111.849 312.032 111.849 316.896C111.849 321.824 114.537 325.216 118.889 325.216ZM160.603 323.36L163.099 330.208C163.099 330.208 159.899 332.384 154.075 332.384C146.139 332.384 141.979 328.096 141.979 319.52V308.448H137.371V301.792H142.363V293.28L150.811 292.96V301.792H161.435V308.448H150.811V319.136C150.811 323.168 152.347 324.96 155.739 324.96C158.811 324.96 160.603 323.36 160.603 323.36ZM184.912 301.408C192.464 301.408 196.24 306.592 196.24 313.44V332H187.408V314.976C187.408 311.392 185.68 308.96 182.096 308.96C177.616 308.96 175.696 312.8 175.696 316.384V332H166.928V286.816H175.504L175.568 306.72H175.76C177.296 303.648 180.048 301.408 184.912 301.408ZM218.859 325.728C223.147 325.728 225.387 323.68 226.667 322.272L230.827 327.072C228.779 329.76 224.363 332.384 217.835 332.384C207.659 332.384 201.579 325.984 201.579 316.896C201.579 307.872 207.659 301.408 217.003 301.408C225.835 301.408 230.891 307.424 230.891 315.68C230.891 317.6 230.635 318.88 230.635 318.88H210.283C211.051 322.912 213.867 325.728 218.859 325.728ZM217.003 308.064C213.547 308.064 210.923 310.304 210.283 314.336H222.891C222.827 310.752 220.651 308.064 217.003 308.064ZM252.934 301.408C254.662 301.408 256.07 301.728 257.414 302.304L255.11 310.752C254.086 310.048 252.998 309.664 251.654 309.664C248.326 309.664 245.446 312.352 245.446 317.408V332H236.678V301.792L243.526 301.536C244.166 303.52 244.614 306.912 244.614 308.192H244.87C246.022 304.352 248.39 301.408 252.934 301.408ZM270.526 289.12L269.31 318.496L262.078 318.752L261.118 289.12H270.526ZM262.398 326.048C263.294 324.256 265.47 323.488 267.326 324.448C269.118 325.344 269.822 327.584 268.862 329.376C267.966 331.168 265.726 331.872 263.934 330.912C262.142 330.016 261.502 327.84 262.398 326.048Z" fill="#F34F34"/>
<path d="M112.791 137.75C112.973 141.921 113.656 146.029 114.347 150.139C115.023 154.161 115.439 158.272 116.291 162.25M108.541 154.5C111.964 152.515 115.664 150.532 119.486 149.472C120.22 149.269 125.791 148.781 125.791 148.5M121.291 143.5C119.224 144.136 117.251 147.611 115.986 149.167C113.488 152.237 111.362 155.56 109.041 158.75M108.291 146.75C107.871 147.03 109.174 147.244 109.625 147.472C112.561 148.961 115.47 150.557 118.208 152.389C120.833 154.145 123.403 156.27 125.041 159" stroke="#F34F34" stroke-width="3" stroke-linecap="round" stroke-linejoin="round"/>
<path d="M158.985 144.073C160.584 142.363 161.689 140.184 162.479 137.886M162.479 137.886C163.204 135.775 163.664 133.563 163.996 131.524C164.214 130.184 164.839 128.183 164.371 126.838C164.048 125.912 163.494 125.652 163.071 126.578C161.578 129.841 161.783 134.365 162.479 137.886ZM162.479 137.886C162.519 138.086 162.56 138.282 162.602 138.476C163.266 141.49 164.597 145.367 167.667 146.859C167.808 146.927 167.981 146.994 168.178 147.057M168.178 147.057C169.584 147.501 172.182 147.691 172.838 146.416C173.556 145.021 171.7 145.154 170.855 145.479C169.886 145.852 168.993 146.392 168.178 147.057ZM168.178 147.057C165.053 149.603 163.073 153.967 162.309 157.65M162.309 157.65C162.234 158.008 162.171 158.361 162.12 158.704C161.729 161.318 161.535 164.383 162.361 166.931C163.078 169.144 163.069 167.469 163.205 165.968C163.482 162.905 163.435 160.257 162.309 157.65ZM162.309 157.65C162.007 156.951 161.627 156.254 161.155 155.554C159.273 152.76 157.303 149.703 154.657 147.51C154.617 147.476 154.565 147.435 154.503 147.388M154.503 147.388C153.809 146.863 151.856 145.587 151.16 145.973C150.862 146.139 151.049 146.891 151.174 147.106C151.553 147.762 152.54 147.6 153.17 147.536L153.189 147.534C153.582 147.494 154.029 147.448 154.503 147.388ZM154.503 147.388C156.112 147.184 158.022 146.812 159.092 145.921C160.589 144.675 161.352 142.594 161.637 140.793" stroke="#F34F34" stroke-width="3" stroke-linecap="round" stroke-linejoin="round"/>
<path d="M128.825 178.723C129.88 175.059 127.87 172.22 124.885 170.117C120.458 166.998 110.478 162.928 106 167.806C93.1195 181.837 133.816 189.372 141.762 189.787M129.271 173.854C129.271 170.189 130.431 167.595 132.79 164.708C135.159 161.81 140.998 155.094 145.48 156.102C151.27 157.405 147.158 169.813 146.025 172.723C143.37 179.541 140.442 186.189 135.963 192" stroke="#F34F34" stroke-width="3" stroke-linecap="round" stroke-linejoin="round"/>
<path d="M96.8203 61.5659C90.5594 53.3098 83.7385 48.4779 74.8097 44.2612M74.8097 44.2612C74.0511 43.9029 73.2772 43.5491 72.4872 43.198C69.344 41.801 69.2625 42.6243 72.0738 43.4933C72.9786 43.7729 73.8911 44.0291 74.8097 44.2612ZM74.8097 44.2612C83.7059 46.5093 93.1814 46.5098 101.959 43.9067C108.292 42.0282 114.784 38.9906 120.149 35.1066C121.333 34.2497 123.182 32.8265 124.2 31.2073M124.2 31.2073C124.647 30.4968 124.933 29.7485 124.933 28.9938C124.933 27.9964 124.498 29.5786 124.2 31.2073ZM124.2 31.2073C124.046 32.0508 123.929 32.9068 123.929 33.4234C123.929 40.2839 137.446 41.4979 142.12 41.8986C150.655 42.6302 162.319 41.6241 165.804 32.3307C166.311 30.9777 165.971 25.9926 166.748 27.5468C168.992 32.0341 175.871 35.2991 180.126 37.0851C193.297 42.6138 210.434 42.2284 223.388 36.3173C225.309 35.4406 227.27 34.5065 229.07 33.3511M229.07 33.3511C230.438 32.4735 231.713 31.4683 232.808 30.2636C233 30.0524 234.517 28.3515 233.665 28.1079C231.249 27.4176 229.748 30.6609 229.07 33.3511ZM229.07 33.3511C228.777 34.5156 228.637 35.5764 228.644 36.1697C228.783 47.9134 245.219 46.8178 253.214 46.5644C268.919 46.0667 282.982 43.4175 297.45 37.4986C302.323 35.5054 289.497 43.7493 284.718 46.8205L284.427 47.0074C279.502 50.1735 275.645 53.5686 273.737 59.2921C270.68 68.4657 275.339 72.5069 281.799 78.0439M88.035 29.4094C85.391 25.7419 83.0022 21.9507 80.0033 18.5412C77.0595 15.1943 73.821 12.0402 70.3891 9.19568C68.7871 7.86782 67.8251 7.29319 66 6.83691M82.6606 11.6738C83.4604 11.9814 84.1176 12.9475 84.6313 13.5549C86.2864 15.5121 87.9307 17.5288 89.3786 19.6458C92.0088 23.4913 93.3455 27.5721 94.2156 32.0965M288.231 29.6781C288.349 25.0773 291.059 20.5873 293.277 16.7199C296.657 10.8288 301.112 6.34704 306.236 2M294.412 29.4093C295.577 21.8382 302.698 16.5601 308.385 12.48" stroke="#F34F34" stroke-width="3" stroke-linecap="round" stroke-linejoin="round"/>
</svg>
